<?xml version="1.0" ?><svg height="512" preserveAspectRatio="xMidYMid" viewBox="0 0 512 512" width="512" xmlns="http://www.w3.org/2000/svg" xmlns:xlink="http://www.w3.org/1999/xlink"><defs><style>
      .cls-1 {
        fill: #db9834;
      }

      .cls-2 {
        fill: #000;
        opacity: 0.3;
      }

      .cls-2, .cls-3 {
        fill-rule: evenodd;
      }

      .cls-3 {
        fill: #fff;
      }
    </style></defs><g><circle class="cls-1" cx="256" cy="256" r="256"/><path class="cls-2" d="M0.603,273.716 C9.492,403.755 115.491,507.116 246.634,511.832 L362.465,327.715 C362.465,327.715 410.983,232.173 341.000,166.000 C279.606,107.948 189.626,148.102 189.626,148.102 L0.603,273.716 Z"/><path class="cls-3" d="M257.684,382.727 C234.071,382.727 211.960,376.322 193.004,365.160 C193.004,365.160 155.845,376.500 137.233,382.180 C124.071,386.197 130.608,374.227 130.608,374.227 L148.480,321.121 C136.980,302.054 130.367,279.728 130.367,255.864 C130.367,185.799 187.369,129.000 257.684,129.000 C327.998,129.000 385.000,185.799 385.000,255.864 C385.000,325.929 327.998,382.727 257.684,382.727 ZM258.121,149.054 C199.646,149.054 152.243,196.289 152.243,254.556 C152.243,278.588 160.307,300.743 173.885,318.482 L158.293,360.058 L200.914,343.347 C217.411,353.923 237.047,360.058 258.121,360.058 C316.596,360.058 363.999,312.823 363.999,254.556 C363.999,196.289 316.596,149.054 258.121,149.054 ZM222.209,295.227 C164.059,237.476 188.271,209.807 209.891,195.284 C217.507,194.792 223.213,193.697 225.179,196.896 C228.127,202.558 236.155,222.743 238.857,229.143 C240.699,233.503 227.838,240.835 227.593,245.266 C227.109,253.997 249.827,282.153 275.870,288.799 C281.766,290.030 288.056,270.123 294.376,271.870 C301.501,273.839 320.105,282.867 325.756,285.574 C329.051,287.153 324.031,302.019 321.733,306.534 C308.466,332.599 252.264,325.075 222.209,295.227 Z"/></g></svg>