<?xml version="1.0" ?><!DOCTYPE svg  PUBLIC '-//W3C//DTD SVG 1.1//EN'  'http://www.w3.org/Graphics/SVG/1.1/DTD/svg11.dtd'><svg enable-background="new 0 0 128 128" height="128px" id="Layer_1" version="1.1" viewBox="0 0 128 128" width="128px" xml:space="preserve" xmlns="http://www.w3.org/2000/svg" xmlns:xlink="http://www.w3.org/1999/xlink"><g><g><path d="M64,7C32.5,7,7,32.5,7,64c0,10.8,3,20.8,8.2,29.4L7,121l27.6-8.2C43.2,118,53.2,121,64,121    c31.5,0,57-25.5,57-57C121,32.5,95.5,7,64,7z" fill="#FFAB00"/><path d="M7,123c-0.5,0-1-0.2-1.4-0.6c-0.5-0.5-0.7-1.3-0.5-2L13,93.7c-5.2-9-8-19.2-8-29.7C5,31.5,31.5,5,64,5    s59,26.5,59,59c0,32.5-26.5,59-59,59c-10.5,0-20.7-2.8-29.7-8l-26.7,7.9C7.4,123,7.2,123,7,123z M34.6,110.8c0.4,0,0.7,0.1,1,0.3    C44.2,116.3,54,119,64,119c30.3,0,55-24.7,55-55c0-30.3-24.7-55-55-55S9,33.7,9,64c0,10,2.7,19.8,7.9,28.4    c0.3,0.5,0.4,1.1,0.2,1.6L10,118l24-7.1C34.2,110.9,34.4,110.8,34.6,110.8z" fill="#37474F"/></g><g><g><path d="M86.5,96.2c-30.2,0-54.8-24.5-54.8-54.7" fill="#FFFFFF"/><path d="M86.5,98.2c-31.3,0-56.8-25.5-56.8-56.7c0-1.1,0.9-2,2-2s2,0.9,2,2c0,29.1,23.7,52.7,52.8,52.7     c1.1,0,2,0.9,2,2S87.6,98.2,86.5,98.2z" fill="#37474F"/></g><g><g><path d="M32,40.3l3.3-3.5c3.9-4.1,10.4-4.3,14.6-0.4l6.5,6.1c4.1,3.9,4.3,10.4,0.4,14.6" fill="#FFFFFF"/><path d="M56.8,59.1c-0.5,0-1-0.2-1.4-0.5c-0.8-0.8-0.8-2-0.1-2.8c1.5-1.6,2.3-3.7,2.3-5.9      c-0.1-2.2-1-4.3-2.6-5.8l-6.5-6.1c-3.3-3.1-8.6-3-11.8,0.3l-3.3,3.5c-0.8,0.8-2,0.8-2.8,0.1c-0.8-0.8-0.8-2-0.1-2.8l3.3-3.5      c4.7-4.9,12.5-5.2,17.4-0.5l6.5,6.1c2.4,2.3,3.8,5.3,3.9,8.6c0.1,3.3-1.1,6.4-3.4,8.8C57.8,58.9,57.3,59.1,56.8,59.1z" fill="#37474F"/></g><g><path d="M88,96.1l3.3-3.5c3.9-4.1,3.7-10.7-0.4-14.6l-6.5-6.1c-4.1-3.9-10.7-3.7-14.6,0.4" fill="#FFFFFF"/><path d="M88,98.1c-0.5,0-1-0.2-1.4-0.5c-0.8-0.8-0.8-2-0.1-2.8l3.3-3.5c3.1-3.3,3-8.6-0.3-11.8L83,73.3      c-3.3-3.1-8.6-3-11.8,0.3c-0.8,0.8-2,0.8-2.8,0.1c-0.8-0.8-0.8-2-0.1-2.8c4.7-4.9,12.5-5.2,17.4-0.5l6.5,6.1      c4.9,4.7,5.2,12.5,0.5,17.4l-3.3,3.5C89,97.9,88.5,98.1,88,98.1z" fill="#37474F"/></g></g></g></g></svg>